# xmcd CD database file
#
# Track frame offsets:
#	150
#	15065
#	30170
#	43982
#	59195
#	74552
#	89962
#	105362
#	118620
#	134687
#
# Disc length: 1990 seconds
#
# Revision: 2
# Processed by: cddbd v1.5.1PL0 Copyright (c) Steve Scherf et al.
# Submitted via: CDex 1.51
#
DISCID=8d07c40a
DTITLE=Tracy Lawrence - Time Marches On
DYEAR=1996
DGENRE=Country
TTITLE0=Is That A Tear
TTITLE1=If You Loved Me
TTITLE2=Time Marches On
TTITLE3=Speed Of A Fool
TTITLE4=I Know That Hurt By Heart
TTITLE5=Somewhere Between The Moon And You
TTITLE6=Different Man
TTITLE7=Excitable Boy
TTITLE8=Stars Over Texas
TTITLE9=From What We Give
EXTD=YEAR: 1996
EXTT0=
EXTT1=
EXTT2=
EXTT3=
EXTT4=
EXTT5=
EXTT6=
EXTT7=
EXTT8=
EXTT9=
PLAYORDER=
